<?xml version="1.0" encoding="UTF-8"?>
<!DOCTYPE svg PUBLIC "-//W3C//DTD SVG 1.1//EN" "http://www.w3.org/Graphics/SVG/1.1/DTD/svg11.dtd">
<!-- Creator: CorelDRAW X5 -->
<svg xmlns="http://www.w3.org/2000/svg" xml:space="preserve" width="156.274mm" height="49.6062mm" style="shape-rendering:geometricPrecision; text-rendering:geometricPrecision; image-rendering:optimizeQuality; fill-rule:evenodd; clip-rule:evenodd"
viewBox="0 0 14634 4645"
 xmlns:xlink="http://www.w3.org/1999/xlink">
 <defs>
  <style type="text/css">
   <![CDATA[
    .fil1 {fill:#00A0E3}
    .fil2 {fill:#FFED00}
    .fil0 {fill:#183867;fill-rule:nonzero}
   ]]>
  </style>
 </defs>
 <g id="Layer_x0020_1">
  <metadata id="CorelCorpID_0Corel-Layer"/>
  <path class="fil0" d="M6630 981c-7,-82 -41,-145 -102,-188 -61,-44 -138,-65 -230,-65 -82,0 -152,18 -210,55 -58,36 -87,85 -87,147 0,47 20,88 60,121 40,34 106,61 199,83 75,18 140,35 195,49 55,15 105,28 147,41 43,13 81,25 115,37 34,12 66,25 97,40 64,31 114,75 151,134 37,58 56,134 56,226 0,85 -17,162 -50,229 -34,67 -79,125 -136,172 -57,47 -124,84 -200,109 -76,25 -158,38 -245,38 -485,0 -734,-187 -744,-562l338 0c2,87 36,155 104,205 67,49 153,74 256,74 44,0 86,-5 127,-15 41,-10 77,-25 109,-44 32,-19 57,-42 75,-68 18,-26 27,-55 27,-86 0,-100 -86,-171 -259,-213 -145,-35 -255,-64 -330,-89 -75,-25 -128,-44 -161,-59 -87,-40 -151,-92 -191,-155 -40,-64 -60,-145 -60,-243 0,-73 14,-141 41,-205 27,-64 67,-119 119,-165 52,-46 116,-83 194,-110 77,-27 166,-41 266,-41 93,0 179,13 259,40 80,26 150,63 210,110 60,47 108,105 143,172 35,67 55,143 59,226l-338 0zm1055 185c-184,0 -275,135 -275,404 0,105 26,191 78,258 52,66 119,100 200,100 82,0 149,-35 202,-105 53,-70 79,-160 79,-271 0,-256 -95,-385 -284,-385zm-267 -248l0 155c33,-65 77,-113 134,-143 56,-30 128,-45 215,-45 91,0 170,18 237,55 67,36 124,85 169,147 45,62 79,133 101,213 22,80 33,164 33,251 0,95 -11,181 -34,259 -23,78 -56,146 -100,203 -44,57 -97,102 -161,134 -64,32 -136,48 -218,48 -76,0 -148,-15 -214,-44 -66,-29 -118,-77 -154,-145l0 744 -325 0 0 -1833 316 0zm1603 245c-200,0 -300,125 -300,376 0,253 100,379 300,379 200,0 300,-126 300,-379 0,-251 -100,-376 -300,-376zm0 -278c98,0 186,15 265,46 78,31 145,75 199,132 55,57 96,126 125,207 29,81 44,170 44,269 0,98 -15,188 -45,269 -30,81 -72,150 -127,207 -55,57 -121,101 -199,132 -78,31 -165,46 -262,46 -100,0 -190,-16 -269,-48 -79,-32 -146,-76 -200,-134 -55,-57 -96,-126 -125,-207 -29,-81 -44,-170 -44,-266 0,-98 15,-187 45,-267 30,-80 72,-149 127,-206 55,-57 121,-102 200,-134 79,-32 168,-48 266,-48zm1456 338c-31,-5 -61,-8 -90,-8 -202,0 -303,100 -303,300l0 646 -327 0 0 -1243 308 0 0 150c27,-42 55,-75 85,-98 29,-24 59,-42 90,-55 31,-13 63,-20 95,-23 33,-3 65,-4 98,-4l44 0 0 335zm1085 -71l-684 0 0 513c0,78 15,139 44,181 29,43 77,64 145,64 65,0 114,-21 145,-63 31,-42 46,-102 46,-180l0 -324 305 0 0 357c0,65 -10,128 -29,188 -19,60 -49,113 -90,158 -41,45 -93,82 -157,109 -64,27 -139,41 -226,41 -91,0 -168,-14 -232,-41 -64,-27 -116,-64 -157,-109 -41,-45 -71,-98 -90,-158 -19,-60 -29,-124 -29,-191l0 -1115 325 0 0 335 684 0 0 235z"/>
  <path class="fil0" d="M1194 2157l3211 0c165,0 244,40 239,229 -8,291 -69,569 -175,825 -118,285 -290,540 -504,754 -214,214 -470,386 -754,504 -274,113 -574,176 -888,176 -314,0 -614,-63 -888,-176 -285,-118 -540,-290 -754,-504 -140,-140 -262,-298 -363,-471 -99,-170 -177,-353 -232,-546 -11,-40 16,-82 62,-82l215 0 47 0 14 46c48,154 114,301 197,437 83,138 183,265 297,378 183,183 402,331 645,432 234,97 491,150 760,150 270,0 526,-53 760,-150 243,-101 462,-248 645,-432 171,-171 312,-374 411,-598 88,-197 144,-411 164,-636l-3108 0c-16,-111 -17,-226 0,-337zm1121 1767c-216,0 -422,-43 -611,-121 -196,-81 -372,-200 -519,-347 -147,-147 -266,-323 -347,-519 -78,-189 -121,-395 -121,-611 0,-216 43,-422 121,-611 81,-196 200,-372 347,-519 147,-147 323,-266 519,-347 189,-78 395,-121 611,-121 216,0 422,43 611,121 196,81 372,200 519,347 71,71 136,150 193,234 34,51 66,103 94,157 63,121 33,199 -93,199l-143 0 -39 0 -18 -35c-30,-59 -65,-115 -103,-168 -38,-52 -81,-103 -129,-150 -117,-117 -256,-211 -410,-274 -148,-61 -312,-95 -483,-95 -171,0 -335,34 -483,95 -154,64 -293,158 -410,274 -117,117 -211,256 -274,410 -61,148 -95,312 -95,483 0,171 34,335 95,483 64,154 158,293 274,410 117,117 256,211 410,274 148,61 312,95 483,95 171,0 335,-34 483,-95 154,-64 293,-158 410,-274 93,-93 172,-201 232,-318l18 -35 39 0 160 0c93,0 165,43 82,186 -33,57 -64,115 -100,170 -58,85 -122,163 -193,234 -147,147 -323,266 -519,347 -189,78 -395,121 -611,121zm-1724 -1429c-134,0 -267,1 -400,1 -133,0 -191,-70 -191,-173 0,-314 63,-614 176,-888 118,-285 290,-540 504,-754 214,-214 470,-386 754,-504 274,-113 574,-176 888,-176 314,0 614,63 888,176 285,118 540,290 754,504 141,141 264,300 366,474 87,150 158,310 211,480 15,47 22,152 -93,152l-163 0 -47 0 -14 -46c-48,-156 -114,-304 -197,-441l0 0c-84,-139 -184,-267 -299,-382 -183,-183 -402,-331 -645,-432 -234,-97 -491,-150 -760,-150 -270,0 -526,53 -760,150 -243,101 -462,248 -645,432 -172,172 -313,375 -412,600 -88,198 -144,414 -163,639l250 0 5 0c-11,112 -11,226 0,337l-5 0z"/>
  <path class="fil0" d="M6788 3067c-24,-95 -69,-169 -136,-222 -67,-54 -143,-80 -226,-80 -67,0 -127,15 -180,44 -53,29 -98,70 -135,123 -37,53 -65,115 -85,187 -19,72 -29,151 -29,239 0,85 10,164 29,236 19,72 46,134 82,185 35,52 78,93 128,123 50,30 107,45 170,45 104,0 187,-28 251,-85 64,-56 107,-137 131,-243l352 0c-18,96 -48,183 -89,260 -41,77 -92,144 -153,199 -61,55 -132,98 -213,128 -81,30 -170,45 -269,45 -109,0 -211,-19 -305,-56 -95,-37 -177,-93 -247,-166 -70,-74 -125,-165 -164,-274 -39,-109 -59,-235 -59,-379 0,-142 18,-269 55,-382 36,-113 88,-209 155,-288 67,-79 149,-140 245,-181 96,-42 205,-63 325,-63 105,0 200,16 285,48 85,32 157,75 218,130 61,55 110,119 146,192 36,74 59,152 68,236l-352 0zm1173 518c-33,27 -90,49 -172,65 -113,22 -189,48 -229,78 -40,30 -60,71 -60,124 0,93 49,139 147,139 42,0 82,-6 121,-18 39,-12 73,-30 102,-53 29,-24 52,-54 70,-90 17,-36 26,-78 26,-125 0,-15 0,-35 -1,-60 -1,-25 -2,-45 -4,-60zm-202 -668c176,0 309,42 397,125 88,84 132,205 132,365l0 785 -305 0c-4,-15 -7,-30 -11,-46 -4,-16 -6,-35 -8,-55 -40,42 -92,73 -155,94 -64,21 -137,31 -221,31 -125,0 -226,-31 -301,-93 -75,-62 -113,-147 -113,-256 0,-85 14,-154 42,-205 28,-51 68,-91 119,-120 51,-29 111,-51 181,-65 70,-15 146,-27 228,-38 65,-9 117,-24 154,-44 37,-20 56,-48 56,-85 0,-47 -22,-83 -65,-106 -44,-24 -92,-35 -145,-35 -58,0 -107,17 -146,50 -39,34 -62,79 -70,135l-314 0c11,-138 58,-246 142,-323 84,-77 218,-116 404,-116zm987 1276l-327 0 0 -1696 327 0 0 1696zm949 -742c-4,-93 -30,-161 -80,-206 -50,-45 -108,-67 -173,-67 -67,0 -125,24 -172,71 -47,47 -75,115 -82,202l507 0zm-518 207c5,93 33,167 82,224 49,56 115,85 196,85 53,0 100,-13 142,-38 42,-25 69,-59 82,-101l338 0c-38,127 -105,225 -202,295 -96,69 -211,104 -344,104 -415,0 -622,-225 -622,-676 0,-193 52,-346 155,-461 104,-115 252,-172 444,-172 389,0 584,247 584,742l-856 0zm1271 -526c38,-69 90,-122 154,-160 65,-37 147,-56 247,-56 60,0 115,9 165,27 50,18 93,45 130,79 36,35 65,78 86,130 21,52 31,111 31,179l0 862 -330 0 0 -753c0,-96 -16,-161 -48,-195 -32,-34 -87,-50 -165,-50 -171,0 -256,95 -256,286l0 712 -327 0 0 -1243 314 0 0 183zm1533 65c-187,0 -281,128 -281,385 0,111 25,200 76,269 51,68 118,102 202,102 40,0 77,-9 112,-26 35,-17 65,-42 90,-74 25,-32 45,-69 59,-112 14,-43 20,-90 20,-140 0,-269 -93,-404 -278,-404zm589 995l-316 0 -5 -153c-75,124 -189,185 -344,185 -91,0 -170,-18 -237,-53 -67,-35 -123,-84 -168,-145 -45,-61 -78,-131 -101,-211 -23,-80 -34,-165 -34,-256 0,-95 12,-181 35,-260 24,-79 58,-147 102,-203 45,-56 99,-100 162,-132 64,-32 135,-48 215,-48 151,0 272,65 363,196l0 -616 327 0 0 1696zm886 -608c-33,27 -90,49 -172,65 -113,22 -189,48 -229,78 -40,30 -60,71 -60,124 0,93 49,139 147,139 42,0 82,-6 121,-18 39,-12 73,-30 102,-53 29,-24 52,-54 70,-90 17,-36 26,-78 26,-125 0,-15 0,-35 -1,-60 -1,-25 -2,-45 -4,-60zm-202 -668c176,0 309,42 397,125 88,84 132,205 132,365l0 785 -305 0c-4,-15 -7,-30 -11,-46 -4,-16 -6,-35 -8,-55 -40,42 -92,73 -155,94 -64,21 -137,31 -221,31 -125,0 -226,-31 -301,-93 -75,-62 -113,-147 -113,-256 0,-85 14,-154 42,-205 28,-51 68,-91 119,-120 51,-29 111,-51 181,-65 70,-15 146,-27 228,-38 65,-9 117,-24 154,-44 37,-20 56,-48 56,-85 0,-47 -22,-83 -65,-106 -44,-24 -92,-35 -145,-35 -58,0 -107,17 -146,50 -39,34 -62,79 -70,135l-314 0c11,-138 58,-246 142,-323 84,-77 218,-116 404,-116zm1380 338c-31,-5 -61,-8 -90,-8 -202,0 -303,100 -303,300l0 646 -327 0 0 -1243 308 0 0 150c27,-42 55,-75 85,-98 29,-24 59,-42 90,-55 31,-13 63,-20 95,-23 33,-3 65,-4 98,-4l44 0 0 335z"/>
  <polygon class="fil0" points="12569,848 12242,848 12242,701 12569,701 "/>
  <polygon class="fil1" points="14633,914 12241,914 12241,1665 14633,1665 "/>
  <polygon class="fil2" points="14633,2415 12241,2415 12241,1665 14633,1665 "/>
 </g>
</svg>
