<?xml version="1.0" encoding="UTF-8"?>
<!DOCTYPE svg PUBLIC "-//W3C//DTD SVG 1.1//EN" "http://www.w3.org/Graphics/SVG/1.1/DTD/svg11.dtd">
<!-- Creator: CorelDRAW X5 -->
<svg xmlns="http://www.w3.org/2000/svg" xml:space="preserve" width="216.166mm" height="49.6062mm" style="shape-rendering:geometricPrecision; text-rendering:geometricPrecision; image-rendering:optimizeQuality; fill-rule:evenodd; clip-rule:evenodd"
viewBox="0 0 22466 5156"
 xmlns:xlink="http://www.w3.org/1999/xlink">
 <defs>
  <style type="text/css">
   <![CDATA[
    .fil1 {fill:#00A0E3}
    .fil2 {fill:#FFED00}
    .fil0 {fill:#183867;fill-rule:nonzero}
   ]]>
  </style>
 </defs>
 <g id="Layer_x0020_1">
  <metadata id="CorelCorpID_0Corel-Layer"/>
  <path class="fil0" d="M6875 3010c-8,-91 -46,-160 -113,-209 -68,-48 -153,-73 -256,-73 -91,0 -168,20 -233,61 -65,40 -97,95 -97,163 0,52 22,97 67,135 44,37 118,68 221,92 83,20 155,38 216,54 62,16 116,31 163,45 47,14 90,28 127,41 37,13 73,28 107,44 71,34 127,84 168,148 41,65 62,148 62,251 0,95 -19,180 -56,254 -37,75 -88,138 -151,191 -64,52 -138,93 -222,121 -85,28 -176,42 -272,42 -539,0 -814,-208 -826,-623l375 0c2,97 40,173 115,227 75,54 169,82 284,82 48,0 95,-6 141,-17 45,-11 86,-27 121,-48 35,-21 63,-46 83,-76 20,-29 30,-61 30,-95 0,-111 -96,-190 -288,-236 -161,-38 -283,-71 -366,-98 -83,-27 -142,-49 -179,-65 -97,-44 -167,-102 -212,-173 -44,-71 -67,-160 -67,-269 0,-81 15,-156 45,-227 30,-71 74,-132 132,-183 57,-51 129,-92 215,-123 86,-30 184,-45 295,-45 103,0 199,15 288,44 89,29 166,70 233,123 67,52 120,116 159,191 39,75 61,158 65,251l-375 0zm1171 206c-204,0 -306,149 -306,448 0,117 29,212 86,286 58,74 132,110 222,110 91,0 165,-39 224,-117 59,-78 88,-178 88,-301 0,-284 -105,-427 -315,-427zm-297 -275l0 173c36,-73 86,-126 148,-159 63,-33 142,-50 239,-50 101,0 189,20 263,61 75,40 137,95 188,163 50,69 88,147 112,236 24,89 36,182 36,278 0,105 -13,201 -38,288 -25,87 -62,162 -110,225 -48,64 -108,113 -179,148 -71,35 -151,53 -242,53 -85,0 -164,-16 -238,-48 -74,-32 -131,-86 -171,-160l0 826 -360 0 0 -2034 351 0zm1780 272c-222,0 -333,139 -333,418 0,280 111,421 333,421 222,0 333,-140 333,-421 0,-278 -111,-418 -333,-418zm0 -309c109,0 207,17 294,51 87,34 160,83 221,147 61,64 107,140 139,230 32,90 48,189 48,298 0,109 -17,208 -50,298 -33,90 -80,166 -141,230 -61,64 -134,112 -221,147 -87,34 -184,51 -291,51 -111,0 -210,-18 -298,-53 -88,-35 -162,-85 -222,-148 -61,-64 -107,-140 -139,-230 -32,-90 -48,-188 -48,-295 0,-109 17,-208 50,-297 33,-89 80,-165 141,-229 61,-64 135,-113 222,-148 88,-35 186,-53 295,-53zm1616 375c-34,-6 -68,-9 -100,-9 -224,0 -336,111 -336,333l0 717 -363 0 0 -1380 342 0 0 166c30,-46 62,-83 94,-109 32,-26 66,-46 100,-61 34,-14 70,-23 106,-26 36,-3 73,-5 109,-5l48 0 0 372zm1205 -79l-760 0 0 569c0,87 16,154 48,201 32,47 86,71 160,71 73,0 126,-23 160,-70 34,-46 51,-113 51,-200l0 -360 339 0 0 396c0,73 -11,142 -32,209 -21,67 -54,125 -100,176 -45,50 -103,91 -174,121 -71,30 -154,45 -251,45 -101,0 -187,-15 -257,-45 -71,-30 -129,-71 -174,-121 -45,-50 -79,-109 -100,-176 -21,-67 -32,-137 -32,-212l0 -1238 360 0 0 372 760 0 0 260z"/>
  <path class="fil0" d="M1326 2394l3564 0c183,0 271,44 265,254 -9,323 -77,632 -194,915 -131,316 -322,600 -560,837 -237,237 -521,429 -837,560 -304,126 -637,195 -986,195 -349,0 -682,-69 -986,-195 -316,-131 -600,-322 -837,-560 -155,-155 -291,-331 -403,-522 -110,-188 -197,-391 -257,-606 -13,-45 18,-91 69,-91l239 0 53 0 16 51c53,171 127,334 218,485 92,153 203,294 329,420 204,204 446,368 716,479 260,107 544,167 844,167 299,0 584,-59 844,-167 269,-112 512,-276 716,-479 190,-190 346,-415 457,-663 97,-219 160,-456 181,-705l-3450 0c-18,-123 -18,-251 0,-374zm1244 1961c-240,0 -469,-48 -678,-134 -218,-90 -413,-222 -576,-385 -163,-163 -295,-359 -385,-576 -87,-209 -134,-438 -134,-678 0,-240 48,-469 134,-678 90,-218 222,-413 385,-576 163,-163 359,-295 576,-385 209,-87 438,-134 678,-134 240,0 469,48 678,134 217,90 413,222 576,385 79,79 151,166 215,260 38,56 73,115 104,175 70,134 36,220 -103,220l-159 0 -43 0 -20 -39c-33,-65 -72,-128 -115,-187 -42,-58 -90,-114 -143,-167 -129,-129 -284,-234 -455,-305 -165,-68 -346,-106 -536,-106 -190,0 -371,38 -536,106 -171,71 -325,175 -455,305 -129,129 -234,284 -304,455 -68,165 -106,346 -106,536 0,190 38,371 106,536 71,171 175,325 304,455 129,129 284,234 455,304 165,68 346,106 536,106 190,0 371,-38 536,-106 171,-71 325,-175 455,-304 104,-104 191,-223 258,-353l20 -39 43 0 177 0c103,0 183,47 91,207 -37,63 -71,128 -111,188 -64,94 -136,181 -215,260 -163,163 -359,295 -576,385 -209,87 -438,134 -678,134zm-1913 -1586c-149,0 -296,1 -444,1 -147,0 -212,-78 -212,-192 0,-349 69,-682 195,-986 131,-316 322,-600 560,-837 237,-237 521,-429 837,-560 304,-126 637,-195 986,-195 349,0 682,69 986,195 316,131 600,322 837,560 156,156 293,333 406,527 97,166 176,345 234,532 16,53 24,169 -103,169l-181 0 -53 0 -16 -51c-53,-173 -127,-337 -218,-490l0 0c-93,-154 -205,-297 -332,-424 -204,-204 -446,-368 -716,-479 -260,-107 -544,-167 -844,-167 -299,0 -584,59 -844,167 -269,112 -512,275 -716,479 -191,191 -347,416 -458,666 -98,220 -160,459 -181,710l277 0 6 0c-12,124 -12,251 0,374l-6 0z"/>
  <path class="fil0" d="M13759 3065c-26,-105 -77,-187 -151,-247 -75,-60 -158,-89 -251,-89 -75,0 -141,16 -200,48 -59,32 -108,78 -150,136 -41,59 -73,128 -94,207 -21,80 -32,168 -32,265 0,95 11,182 32,262 21,80 51,148 91,206 39,58 87,103 142,136 55,33 119,50 189,50 115,0 208,-31 278,-94 71,-63 119,-152 145,-269l390 0c-20,107 -53,203 -98,289 -45,86 -102,159 -169,221 -68,62 -146,109 -236,142 -90,33 -189,50 -298,50 -121,0 -234,-21 -339,-62 -105,-41 -196,-103 -274,-185 -78,-82 -138,-183 -182,-304 -43,-121 -65,-261 -65,-421 0,-157 20,-299 61,-424 40,-125 98,-232 172,-319 75,-88 165,-155 272,-201 107,-46 227,-70 360,-70 117,0 222,18 316,53 94,35 175,83 242,144 68,61 122,132 162,213 40,82 66,169 76,262l-390 0zm1301 575c-36,30 -100,54 -191,73 -125,24 -210,53 -254,86 -44,33 -67,79 -67,138 0,103 54,154 163,154 46,0 91,-7 135,-20 43,-13 81,-33 113,-59 32,-26 58,-60 77,-100 19,-40 29,-87 29,-139 0,-16 0,-38 -1,-67 -1,-28 -3,-50 -5,-67zm-224 -741c196,0 343,46 440,139 98,93 147,228 147,406l0 872 -339 0c-4,-16 -8,-33 -12,-51 -4,-18 -7,-38 -9,-61 -44,46 -102,81 -173,104 -71,23 -152,35 -245,35 -139,0 -251,-34 -334,-103 -84,-69 -126,-163 -126,-284 0,-95 16,-170 47,-227 31,-56 75,-101 132,-133 56,-32 124,-56 201,-73 78,-16 162,-30 253,-42 73,-10 130,-26 171,-48 41,-22 62,-53 62,-94 0,-52 -24,-92 -73,-118 -48,-26 -102,-39 -160,-39 -65,0 -119,19 -162,56 -43,37 -69,87 -77,150l-348 0c12,-153 65,-273 157,-359 93,-86 242,-129 448,-129zm1096 1416l-363 0 0 -1882 363 0 0 1882zm1053 -823c-4,-103 -34,-179 -89,-229 -55,-49 -120,-74 -192,-74 -75,0 -138,26 -191,79 -52,52 -83,127 -91,224l563 0zm-575 230c6,103 36,186 91,248 54,63 127,94 218,94 59,0 111,-14 157,-42 46,-28 77,-66 91,-112l375 0c-42,141 -117,250 -224,327 -107,77 -234,115 -381,115 -460,0 -690,-250 -690,-751 0,-214 57,-384 173,-511 115,-127 279,-191 493,-191 432,0 648,274 648,823l-950 0zm1410 -584c42,-77 99,-136 171,-177 72,-41 163,-62 274,-62 67,0 128,10 183,30 55,20 103,49 144,88 40,38 72,86 95,144 23,58 35,124 35,198l0 956 -366 0 0 -835c0,-107 -18,-179 -53,-216 -35,-37 -96,-56 -183,-56 -190,0 -284,106 -284,318l0 790 -363 0 0 -1380 348 0 0 203zm1701 73c-208,0 -312,142 -312,427 0,123 28,222 85,298 57,76 131,113 224,113 44,0 86,-10 124,-29 38,-19 72,-46 100,-82 28,-35 50,-77 65,-124 15,-47 23,-99 23,-156 0,-299 -103,-448 -309,-448zm654 1105l-351 0 -6 -169c-83,137 -210,206 -381,206 -101,0 -189,-20 -263,-59 -75,-39 -137,-93 -186,-160 -49,-68 -87,-146 -112,-235 -25,-89 -38,-184 -38,-285 0,-105 13,-201 39,-289 26,-88 64,-163 113,-225 49,-63 109,-111 180,-147 71,-35 150,-53 239,-53 167,0 302,73 403,218l0 -684 363 0 0 1882zm984 -675c-36,30 -100,54 -191,73 -125,24 -210,53 -254,86 -44,33 -67,79 -67,138 0,103 54,154 163,154 46,0 91,-7 135,-20 43,-13 81,-33 114,-59 32,-26 58,-60 77,-100 19,-40 29,-87 29,-139 0,-16 0,-38 -1,-67 -1,-28 -3,-50 -5,-67zm-224 -741c196,0 343,46 440,139 98,93 147,228 147,406l0 872 -339 0c-4,-16 -8,-33 -12,-51 -4,-18 -7,-38 -9,-61 -44,46 -102,81 -173,104 -71,23 -152,35 -245,35 -139,0 -251,-34 -334,-103 -84,-69 -126,-163 -126,-284 0,-95 16,-170 47,-227 31,-56 75,-101 132,-133 57,-32 124,-56 201,-73 78,-16 162,-30 253,-42 73,-10 130,-26 171,-48 41,-22 62,-53 62,-94 0,-52 -24,-92 -73,-118 -48,-26 -102,-39 -160,-39 -65,0 -119,19 -162,56 -43,37 -69,87 -77,150l-348 0c12,-153 65,-273 157,-359 93,-86 242,-129 448,-129zm1531 375c-34,-6 -68,-9 -100,-9 -224,0 -336,111 -336,333l0 717 -363 0 0 -1380 342 0 0 166c30,-46 62,-83 94,-109 32,-26 66,-46 100,-61 34,-14 70,-23 106,-26 36,-3 73,-5 109,-5l48 0 0 372z"/>
  <polygon class="fil0" points="20175,603 19812,603 19812,439 20175,439 "/>
  <polygon class="fil1" points="22465,676 19810,676 19810,1509 22465,1509 "/>
  <polygon class="fil2" points="22465,2341 19810,2341 19810,1509 22465,1509 "/>
 </g>
</svg>
